<?xml version="1.0" encoding="UTF-8" standalone="no"?>
<svg
   xmlns:dc="http://purl.org/dc/elements/1.1/"
   xmlns:cc="http://web.resource.org/cc/"
   xmlns:rdf="http://www.w3.org/1999/02/22-rdf-syntax-ns#"
   xmlns:svg="http://www.w3.org/2000/svg"
   xmlns="http://www.w3.org/2000/svg"
   xmlns:sodipodi="http://sodipodi.sourceforge.net/DTD/sodipodi-0.dtd"
   xmlns:inkscape="http://www.inkscape.org/namespaces/inkscape"
   width="844.309"
   height="458.736"
   id="svg2"
   sodipodi:version="0.32"
   inkscape:version="0.45"
   sodipodi:docname="sound3d.svg"
   sodipodi:docbase="/home/jori/projects/emiplib/doc"
   inkscape:output_extension="org.inkscape.output.svg.inkscape"
   inkscape:export-filename="/home/jori/projects/emiplib/doc/sound3d.png"
   inkscape:export-xdpi="53.299999"
   inkscape:export-ydpi="53.299999"
   sodipodi:modified="TRUE">
  <metadata
     id="metadata69">
    <rdf:RDF>
      <cc:Work
         rdf:about="">
        <dc:format>image/svg+xml</dc:format>
        <dc:type
           rdf:resource="http://purl.org/dc/dcmitype/StillImage" />
      </cc:Work>
    </rdf:RDF>
  </metadata>
  <sodipodi:namedview
     inkscape:window-height="588"
     inkscape:window-width="766"
     inkscape:pageshadow="2"
     inkscape:pageopacity="0.0"
     guidetolerance="10.0"
     gridtolerance="10.0"
     objecttolerance="10.0"
     borderopacity="1.0"
     bordercolor="#666666"
     pagecolor="#ffffff"
     id="base"
     inkscape:zoom="0.80539232"
     inkscape:cx="426.82394"
     inkscape:cy="229.368"
     inkscape:window-x="49"
     inkscape:window-y="0"
     inkscape:current-layer="svg2" />
  <defs
     id="defs4">
    <marker
       id="ArrowEnd"
       viewBox="0 0 10 10"
       refX="0"
       refY="5"
       markerUnits="strokeWidth"
       markerWidth="4"
       markerHeight="3"
       orient="auto">
      <path
         d="M 0 0 L 10 5 L 0 10 z"
         id="path7" />
    </marker>
    <marker
       id="ArrowStart"
       viewBox="0 0 10 10"
       refX="10"
       refY="5"
       markerUnits="strokeWidth"
       markerWidth="4"
       markerHeight="3"
       orient="auto">
      <path
         d="M 10 0 L 0 5 L 10 10 z"
         id="path10" />
    </marker>
  </defs>
  <path
     id="path14"
     d="M 346.782,343.33 L 584.297,277.186"
     style="fill:none;stroke:#010001;stroke-width:1.41729999;stroke-dasharray:6, 3" />
  <path
     id="path16"
     d="M 352.793,342.326 L 729.614,360.365"
     style="fill:none;stroke:#010001;stroke-width:1.41729999" />
  <path
     id="path18"
     d="M 715.122,366.767 L 729.614,360.365 L 715.797,352.611"
     style="fill:#010001;fill-rule:evenodd;stroke:none" />
  <path
     id="path20"
     d="M 350.79,337.319 L 693.536,99.7986"
     style="fill:none;stroke:#010001;stroke-width:1.41729999" />
  <path
     id="path22"
     d="M 685.922,113.697 L 693.536,99.7986 L 677.852,102.049"
     style="fill:#010001;fill-rule:evenodd;stroke:none" />
  <path
     id="path24"
     d="M 666.813,344.67 C 666.813,399.459 520.864,443.881 340.833,443.881 C 160.801,443.881 14.8557,399.459 14.8557,344.67 C 14.8557,289.881 160.801,245.459 340.833,245.459 C 520.864,245.459 666.813,289.881 666.813,344.67 z "
     style="fill:none;stroke:#000000;stroke-width:2.83459997" />
  <path
     id="path26"
     d="M 157.751,425.756 C 155.118,-120.084 525.922,-60.9554 524.418,261.748"
     style="fill:none;stroke:#000000;stroke-width:2.83459997" />
  <path
     id="path28"
     d="M 17.9494,330.049 C 14.8557,-94.6935 666.813,-94.6935 663.489,357.607"
     style="fill:none;stroke:#000000;stroke-width:2.83459997" />
  <path
     id="path30"
     d="M 370.598,335.459 C 370.598,358.939 357.903,377.978 342.25,377.978 C 326.598,377.978 313.907,358.939 313.907,335.459 C 313.907,311.979 326.598,292.94 342.25,292.94 C 357.903,292.94 370.598,311.979 370.598,335.459"
     style="fill:#ffffff;fill-rule:evenodd;stroke:none" />
  <path
     id="path32"
     d="M 370.598,335.459 C 370.598,358.939 357.903,377.978 342.25,377.978 C 326.598,377.978 313.907,358.939 313.907,335.459 C 313.907,311.979 326.598,292.94 342.25,292.94 C 357.903,292.94 370.598,311.979 370.598,335.459 z "
     style="fill:none;stroke:#000000;stroke-width:2.83459997" />
  <path
     id="path34"
     d="M 341.086,323.092 C 317.036,309.061 324.051,352.154 343.09,348.146"
     style="fill:none;stroke:#000000;stroke-width:2.83459997" />
  <path
     id="path36"
     d="M 342.204,328.729 C 329.063,320.084 327.055,341.131 342.09,344.135"
     style="fill:none;stroke:#000000;stroke-width:2.83459997" />
  <path
     id="path38"
     d="M 359.629,325.783 C 359.629,327.408 358.684,328.729 357.52,328.729 C 356.356,328.729 355.411,327.408 355.411,325.783 C 355.411,324.158 356.356,322.838 357.52,322.838 C 358.684,322.838 359.629,324.158 359.629,325.783"
     style="fill:#010001;fill-rule:evenodd;stroke:none" />
  <path
     id="path40"
     d="M 359.629,325.783 C 359.629,327.408 358.684,328.729 357.52,328.729 C 356.356,328.729 355.411,327.408 355.411,325.783 C 355.411,324.158 356.356,322.838 357.52,322.838 C 358.684,322.838 359.629,324.158 359.629,325.783 z "
     style="fill:none;stroke:#000000;stroke-width:2.83459997" />
  <path
     id="path42"
     d="M 351.149,357.291 C 353.153,362.299 357.165,364.052 364.18,363.802"
     style="fill:none;stroke:#000000;stroke-width:2.83459997" />
  <path
     id="path44"
     d="M 370.598,335.459 C 370.633,336.182 370.657,336.916 370.657,337.643 C 370.657,340.197 370.415,342.752 369.942,345.264"
     style="fill:none;stroke:#ffffff;stroke-width:3.40152001" />
  <path
     id="path46"
     d="M 368.438,328.979 C 366.434,336.994 387.481,345.264 364.93,346.013"
     style="fill:none;stroke:#000000;stroke-width:2.83459997" />
  <path
     id="path52"
     d="M 560.247,180.975 L 574.278,195.006"
     style="fill:none;stroke:#010001;stroke-width:2.83459997" />
  <path
     id="path54"
     d="M 563.254,196.01 L 570.27,179.975"
     style="fill:none;stroke:#010001;stroke-width:2.83459997" />
  <path
     id="path58"
     d="M 370.832,17.6186 C 519.157,28.6425 589.309,208.033 584.297,277.186"
     style="fill:none;stroke:#010001;stroke-width:1.41729999;stroke-dasharray:6, 3" />
  <path
     id="path60"
     d="M 454.016,313.264 C 477.079,318.643 497.813,331.295 513.145,349.342"
     style="fill:none;stroke:#010001;stroke-width:2.83459997" />
  <path
     id="path62"
     d="M 417.938,290.213 C 425.958,295.209 430.833,303.994 430.833,313.444 C 430.833,315.748 430.54,318.049 429.961,320.279"
     style="fill:none;stroke:#010001;stroke-width:2.83459997" />
  <text
     xml:space="preserve"
     style="font-size:24px;font-style:normal;font-weight:normal;fill:#000000;fill-opacity:1;stroke:none;stroke-width:1px;stroke-linecap:butt;stroke-linejoin:miter;stroke-opacity:1;font-family:Kedage"
     x="697.79663"
     y="86.246719"
     id="text2221"><tspan
       sodipodi:role="line"
       id="tspan2223"
       x="697.79663"
       y="86.246719">Sound</tspan><tspan
       sodipodi:role="line"
       x="697.79663"
       y="116.24672"
       id="tspan2225">source</tspan></text>
  <text
     xml:space="preserve"
     style="font-size:24px;font-style:normal;font-weight:normal;fill:#000000;fill-opacity:1;stroke:none;stroke-width:1px;stroke-linecap:butt;stroke-linejoin:miter;stroke-opacity:1;font-family:Kedage"
     x="661.78925"
     y="394.17117"
     id="text2227"><tspan
       sodipodi:role="line"
       id="tspan2229"
       x="661.78925"
       y="394.17117">Front direction</tspan></text>
  <text
     xml:space="preserve"
     style="font-size:24px;font-style:normal;font-weight:normal;fill:#000000;fill-opacity:1;stroke:none;stroke-width:1px;stroke-linecap:butt;stroke-linejoin:miter;stroke-opacity:1;font-family:Kedage"
     x="468.12817"
     y="388.94858"
     id="text2231"
     transform="matrix(0.9931284,-0.1170295,0.1170295,0.9931284,0,0)"><tspan
       sodipodi:role="line"
       id="tspan2233"
       x="468.12817"
       y="388.94858">Azimuth</tspan></text>
  <text
     xml:space="preserve"
     style="font-size:24px;font-style:normal;font-weight:normal;fill:#000000;fill-opacity:1;stroke:none;stroke-width:1px;stroke-linecap:butt;stroke-linejoin:miter;stroke-opacity:1;font-family:Kedage"
     x="268.45773"
     y="464.59964"
     id="text2235"
     transform="matrix(0.9063899,-0.4224421,0.4224421,0.9063899,0,0)"><tspan
       sodipodi:role="line"
       id="tspan2237"
       x="268.45773"
       y="464.59964">Elevation</tspan></text>
</svg>
